<?xml version="1.0" encoding="UTF-8"?>
<svg xmlns="http://www.w3.org/2000/svg" xmlns:xlink="http://www.w3.org/1999/xlink" viewBox="0 0 448 153.82">
  <defs>
    <style>
      .cls-1 {
        fill: url(#Gradient_2);
      }

      .cls-1, .cls-2, .cls-3, .cls-4, .cls-5 {
        stroke-width: 0px;
      }

      .cls-2 {
        fill: url(#Gradient_1);
      }

      .cls-3 {
        fill: url(#Gradient_3);
      }

      .cls-4 {
        fill: #010101;
      }

      .cls-5 {
        fill: #b4b3b3;
        mix-blend-mode: multiply;
      }

      .cls-6 {
        isolation: isolate;
      }
    </style>
    <linearGradient id="Gradient_3" data-name="Gradient 3" x1="-107.81" y1="-2003.38" x2="-43.47" y2="-2003.38" gradientTransform="translate(2080.46 4.48) rotate(-90)" gradientUnits="userSpaceOnUse">
      <stop offset="0" stop-color="#741610"/>
      <stop offset="1" stop-color="#e10533"/>
    </linearGradient>
    <linearGradient id="Gradient_2" data-name="Gradient 2" x1="-71.97" y1="-2044.88" x2="-7.63" y2="-2044.88" gradientTransform="translate(2135.15 27.13) rotate(-90)" gradientUnits="userSpaceOnUse">
      <stop offset="0" stop-color="#cdcccc"/>
      <stop offset=".09" stop-color="#a6a5a5"/>
      <stop offset=".4" stop-color="#404040"/>
      <stop offset=".5" stop-color="#e7e6e6"/>
      <stop offset="1" stop-color="#bfbebe"/>
    </linearGradient>
    <linearGradient id="Gradient_1" data-name="Gradient 1" x1="-69.04" y1="-2044.88" x2="-10.56" y2="-2044.88" gradientTransform="translate(2135.15 27.13) rotate(-90)" gradientUnits="userSpaceOnUse">
      <stop offset="0" stop-color="#404040"/>
      <stop offset=".27" stop-color="#999"/>
      <stop offset=".5" stop-color="#e7e6e6"/>
      <stop offset=".86" stop-color="#999"/>
      <stop offset="1" stop-color="#404040"/>
    </linearGradient>
  </defs>
  <g class="cls-6">
    <g id="katman_1" data-name="katman 1">
      <g id="Logo">
        <path id="Wordmark" class="cls-4" d="M301.84,55.08v48.92h-7.24v-42.77l-16.76,42.77h-7.06l-16.76-42.77v42.77h-7.24v-48.92h11.44l16.09,41.11,16.09-41.11h11.44ZM146.48,102.16c4.33,1.48,11.34,2.62,16.1,2.62,11.32,0,20.46-4.79,20.46-14.24,0-7.32-6.3-11.04-13.52-13.75l-4.3-1.69c-5.54-2.14-9.61-4.33-9.61-8.36,0-5.08,5.61-7.48,11.67-7.48,4.68,0,9.13.94,13.04,2.33l.56-5.34c-4.58-1.3-8.72-1.89-13.75-1.89-9.49,0-20.01,3.86-20.01,13.19,0,6.59,5.8,10.1,11.74,12.45l4.43,1.72c6.16,2.31,11.08,4.98,11.08,9.9,0,5.86-6.18,8.26-12.27,8.26-5.48,0-10.78-1.43-15.17-3.42l-.46,5.7ZM320.5,104v-19.51h6.71c11.37,0,21.04-3.96,21.04-15.32s-9.75-14.08-20.48-14.08h-15.24v48.92h7.97ZM320.5,60.06h7.79c6.69,0,11.57,2.74,11.57,9.17s-4.39,10.21-11.57,10.21h-7.79v-19.39ZM378.31,104.84c16.31,0,24.83-11.01,24.83-25.26s-8.03-25.26-24.83-25.26-24.83,11.57-24.83,25.26,8.52,25.26,24.83,25.26ZM361.95,79.59c0-8.91,4.81-19.97,16.36-19.97s16.36,10.87,16.36,19.97-4.64,19.97-16.36,19.97-16.36-11.06-16.36-19.97ZM213.53,104.84c16.31,0,24.83-11.01,24.83-25.26s-8.03-25.26-24.83-25.26-24.83,11.57-24.83,25.26,8.52,25.26,24.83,25.26ZM197.17,79.59c0-8.91,4.81-19.97,16.36-19.97s16.36,10.87,16.36,19.97-4.65,19.97-16.36,19.97-16.36-11.06-16.36-19.97Z"/>
        <g id="Symbol">
          <path class="cls-3" d="M77.08,47.95c17.77,0,32.18,14.4,32.17,32.17,0,17.76-14.4,32.17-32.17,32.17s-32.17-14.41-32.17-32.17,14.4-32.17,32.17-32.17Z"/>
          <path class="cls-5" d="M101.71,100.82c2.36-2.8,4.25-6.02,5.55-9.52-4.48,3.5-10.13,5.59-16.26,5.59-14.6,0-26.44-11.83-26.44-26.43,0-9.52,5.03-17.86,12.58-22.52-.02,0-.04,0-.06,0-3.77,0-7.38.65-10.75,1.84-4.7,5.59-7.53,12.81-7.53,20.68,0,17.78,14.41,32.18,32.19,32.18,3.76,0,7.36-.65,10.71-1.83Z"/>
          <g>
            <path class="cls-1" d="M58.1,66.93c0,17.77,14.4,32.17,32.17,32.17s32.17-14.4,32.17-32.17-14.4-32.17-32.17-32.17-32.17,14.41-32.17,32.17ZM118.64,66.93c0,15.67-12.7,28.37-28.37,28.37s-28.37-12.7-28.37-28.37,12.7-28.37,28.37-28.37,28.37,12.71,28.37,28.37Z"/>
            <path class="cls-2" d="M61.03,66.93c0,16.15,13.09,29.24,29.24,29.24s29.24-13.09,29.24-29.24-13.09-29.24-29.24-29.24-29.24,13.09-29.24,29.24ZM116.7,66.92c0,14.6-11.83,26.43-26.43,26.43s-26.43-11.83-26.43-26.43,11.83-26.43,26.43-26.43,26.43,11.83,26.43,26.43Z"/>
          </g>
        </g>
      </g>
    </g>
  </g>
</svg>