<svg xmlns="http://www.w3.org/2000/svg" viewBox="0 0 1094 141.41"><defs><style>.cls-1{fill:#fff;}.cls-2{fill:#00abc8;}.cls-3{fill:#e1251b;}.cls-4{fill:#001f60;}</style></defs><g id="Layer_2" data-name="Layer 2"><g id="Layer_1-2" data-name="Layer 1"><path class="cls-1" d="M85.16,1.51A70.69,70.69,0,1,0,139.9,85.16,70.68,70.68,0,0,0,85.16,1.51"/><path class="cls-2" d="M52.75,63.71C31.83,69.8,14.31,56.52,9.08,46.11a66.63,66.63,0,0,0-3.32,11c-.32,1.56-.59,3.11-.8,4.66,0,.38-.1.75-.14,1.13-.07.56-.13,1.12-.18,1.67-.07.8-.14,1.6-.18,2.41l0,.43c0,1.09-.08,2.18-.08,3.27a65.66,65.66,0,0,0,.34,6.76s0,.08,0,.12q.16,1.53.39,3c0,.23.07.45.11.67.11.72.24,1.43.38,2.14.1.52.21,1,.32,1.55l.27,1.14q.29,1.24.63,2.46l.06.19a66.49,66.49,0,0,0,8.79,18.94l0,0a66.39,66.39,0,0,0,41.42,27.91h.09c1.5.32,3,.58,4.49.78l.19,0c1.07.14,2.14.26,3.21.35l1.67.13,1.08,0c1,.05,1.94.08,2.92.08s2.1,0,3.15-.08l.5,0c1,0,2.05-.13,3.07-.23l.32,0c.85-.09,1.7-.2,2.55-.32l.92-.14c.85-.13,1.69-.28,2.53-.45l1.35-.29,1.21-.28q2.91-.7,5.72-1.66l.1,0A66.59,66.59,0,0,0,109,124.85l.33-.23c1.5-1.07,2.94-2.21,4.34-3.39l1-.88,1-.85c.61-.57,1.22-1.15,1.81-1.73l.53-.54c.51-.52,1-1,1.51-1.59l.51-.55.29-.33c-38.63,32.81-88.59-12.34-67.56-51.05"/><path class="cls-3" d="M70.7,4.35A66.28,66.28,0,0,0,15.25,34.28h0a66.14,66.14,0,0,0-5.12,9.32c17.41,12.62,37.17,6.51,52.6.06C80.11,36.4,108.41,32,127,57.46A33.59,33.59,0,0,0,69.91,84.08c1.53,18.49,17.73,31.91,36.24,30.73,11.9-.75,30.91-11.91,30.91-44.11A66.36,66.36,0,0,0,70.7,4.35"/><polygon class="cls-4" points="154.25 48.32 175.77 48.32 175.77 108.8 194.17 108.8 194.17 48.32 215.69 48.32 215.69 32.61 154.25 32.61 154.25 48.32"/><path class="cls-4" d="M364.79,108.79l-19.9-32.6a22.94,22.94,0,0,0,11.62-7.53,20.25,20.25,0,0,0,4.19-13,22.21,22.21,0,0,0-2.47-11,20.06,20.06,0,0,0-6.62-7.1,27.81,27.81,0,0,0-9.36-3.82,50.67,50.67,0,0,0-10.7-1.13H302.49v76.18h18V78.56h6.27l16.54,30.23ZM341.28,60.7a8.23,8.23,0,0,1-3.19,2.79,14.72,14.72,0,0,1-4.33,1.35,29.74,29.74,0,0,1-4.65.38h-8.76V47.46h9.84a30.54,30.54,0,0,1,4.28.32,12.91,12.91,0,0,1,4,1.24,7.77,7.77,0,0,1,2.91,2.58A7.61,7.61,0,0,1,342.52,56a8.26,8.26,0,0,1-1.24,4.74"/><polygon class="cls-4" points="405.82 67.69 438.64 32.61 415.61 32.61 388.39 63.6 388.07 63.6 388.07 32.61 370.1 32.61 370.1 108.79 388.07 108.79 388.07 73.72 388.28 73.72 416.58 108.79 440.58 108.79 405.82 67.69"/><polygon class="cls-4" points="494.25 108.79 512.65 108.79 512.65 76.51 541.92 32.61 520.4 32.61 504.15 60.8 487.9 32.61 465.63 32.61 494.25 76.51 494.25 108.79"/><polygon class="cls-4" points="598.25 93.08 562.84 93.08 562.84 77.27 594.48 77.27 594.48 62.53 562.84 62.53 562.84 48.11 596.31 48.11 596.31 32.61 545.09 32.61 545.09 108.79 598.25 108.79 598.25 93.08"/><path class="cls-4" d="M271.48,108.58a30.55,30.55,0,0,0,10.39-6.3,27.27,27.27,0,0,0,6.61-9.68,32.61,32.61,0,0,0,2.32-12.54V48.55H272.4v30a22.39,22.39,0,0,1-.76,5.92,13.86,13.86,0,0,1-2.47,5A12.11,12.11,0,0,1,264.7,93a17.61,17.61,0,0,1-13.23,0,11.58,11.58,0,0,1-4.41-3.5,15.11,15.11,0,0,1-2.48-5,21.59,21.59,0,0,1-.8-5.92v-30h-18.3V80.06a33.57,33.57,0,0,0,2.26,12.54,27.3,27.3,0,0,0,6.46,9.68,29.5,29.5,0,0,0,10.22,6.3,41.63,41.63,0,0,0,27.06,0"/><rect class="cls-4" x="443.94" y="32.61" width="18.51" height="11.3"/><rect class="cls-4" x="225.48" y="32.61" width="18.29" height="11.3"/><rect class="cls-4" x="272.51" y="32.61" width="18.29" height="11.3"/><rect class="cls-4" x="443.94" y="48.55" width="18.51" height="60.25"/><path class="cls-4" d="M664.17,47.41a9.42,9.42,0,0,1,3.39-1.24,22.4,22.4,0,0,1,3.71-.32,17.5,17.5,0,0,1,7.37,1.77,16.74,16.74,0,0,1,6.19,4.79L696.56,40a34,34,0,0,0-11.79-7,39.69,39.69,0,0,0-13.18-2.36A42.7,42.7,0,0,0,660.94,32a29.1,29.1,0,0,0-9.47,4.25,22.45,22.45,0,0,0-6.78,7.42,21.61,21.61,0,0,0-2.58,10.87,20.64,20.64,0,0,0,1.67,8.77,19.14,19.14,0,0,0,4.41,6.14,24.22,24.22,0,0,0,6.24,4.14,63.43,63.43,0,0,0,7.15,2.8c2.51.79,4.76,1.52,6.73,2.2a25.64,25.64,0,0,1,5,2.26,10.66,10.66,0,0,1,3.07,2.75,6.15,6.15,0,0,1,1.07,3.65,8.2,8.2,0,0,1-.86,3.88,7,7,0,0,1-2.31,2.58,9.93,9.93,0,0,1-3.39,1.4,18.11,18.11,0,0,1-4,.43,20,20,0,0,1-9.1-2.31,22.35,22.35,0,0,1-7.37-5.76l-12,12.27a33.58,33.58,0,0,0,12.7,8.12,44.86,44.86,0,0,0,15.82,2.85,39.49,39.49,0,0,0,10.86-1.5,28,28,0,0,0,9.37-4.63,22.79,22.79,0,0,0,6.51-7.91A24.93,24.93,0,0,0,696,85.34a18.54,18.54,0,0,0-2.26-9.53,21.81,21.81,0,0,0-5.71-6.4,30.09,30.09,0,0,0-7.64-4.14q-4.18-1.56-8.07-2.85c-1.79-.58-3.4-1.13-4.84-1.67A21.79,21.79,0,0,1,663.79,59a7.19,7.19,0,0,1-2.37-2.27,6,6,0,0,1-.8-3.22,6.26,6.26,0,0,1,1-3.72,8.39,8.39,0,0,1,2.53-2.36"/><path class="cls-4" d="M771.5,78.67H786V92.55a23,23,0,0,1-5.38,1.56,37.53,37.53,0,0,1-6.13.48,26.24,26.24,0,0,1-10-1.77,20.43,20.43,0,0,1-7.32-4.95,20.87,20.87,0,0,1-4.46-7.59,29.64,29.64,0,0,1-1.51-9.68,26.29,26.29,0,0,1,1.67-9.53,22.49,22.49,0,0,1,4.68-7.53,21.38,21.38,0,0,1,7.1-4.95,22.24,22.24,0,0,1,8.93-1.77,24,24,0,0,1,10,2,20.09,20.09,0,0,1,7.1,5.11l11.62-13.24a34.75,34.75,0,0,0-12.59-7.37A49.9,49.9,0,0,0,773,30.57a46.14,46.14,0,0,0-16.24,2.8,38.66,38.66,0,0,0-13.13,8A36.87,36.87,0,0,0,734.86,54a41.75,41.75,0,0,0-3.17,16.58A41.48,41.48,0,0,0,734.81,87a37.07,37.07,0,0,0,8.66,12.65,38.92,38.92,0,0,0,13.23,8.18,47.49,47.49,0,0,0,16.84,2.9,68.48,68.48,0,0,0,16.3-1.83,58.88,58.88,0,0,0,13.08-4.73V63.82H771.5Z"/><path class="cls-4" d="M881.39,41.33a38.28,38.28,0,0,0-13.18-8,50.28,50.28,0,0,0-33.09,0,38.39,38.39,0,0,0-13.12,8,36.09,36.09,0,0,0-8.67,12.53,42,42,0,0,0-3.12,16.52,42.51,42.51,0,0,0,3.12,16.52A37.57,37.57,0,0,0,822,99.7a38.55,38.55,0,0,0,13.12,8.23,48.49,48.49,0,0,0,33.09,0,38.43,38.43,0,0,0,13.18-8.23,37.54,37.54,0,0,0,8.66-12.8,42.51,42.51,0,0,0,3.12-16.52,42,42,0,0,0-3.12-16.52,36.06,36.06,0,0,0-8.66-12.53M871.87,79.9a22.06,22.06,0,0,1-4.52,7.48,21.07,21.07,0,0,1-6.89,4.9,22.86,22.86,0,0,1-17.64,0,20.45,20.45,0,0,1-6.84-4.9,22.42,22.42,0,0,1-4.46-7.48,28.49,28.49,0,0,1-.06-18.77,20.86,20.86,0,0,1,4.47-7.37,21.13,21.13,0,0,1,15.71-6.62,21.87,21.87,0,0,1,8.88,1.77,20.61,20.61,0,0,1,6.88,4.85,22.09,22.09,0,0,1,4.47,7.37,26.26,26.26,0,0,1,1.61,9.25,27.33,27.33,0,0,1-1.61,9.52"/><path class="cls-4" d="M955.59,68.66a20.26,20.26,0,0,0,4.2-13,22.32,22.32,0,0,0-2.47-11,20.15,20.15,0,0,0-6.62-7.1,27.81,27.81,0,0,0-9.36-3.82,50.69,50.69,0,0,0-10.71-1.13h-29v76.18h18V78.56h6.27l16.54,30.23h21.52L944,76.19a22.9,22.9,0,0,0,11.62-7.53m-15.23-8a8.16,8.16,0,0,1-3.19,2.79,14.75,14.75,0,0,1-4.32,1.35,29.94,29.94,0,0,1-4.65.38h-8.76V47.46h9.84a30.4,30.4,0,0,1,4.27.32,12.83,12.83,0,0,1,4,1.24,7.8,7.8,0,0,1,2.92,2.58A7.61,7.61,0,0,1,941.61,56a8.26,8.26,0,0,1-1.25,4.74"/><polygon class="cls-4" points="1024.16 32.61 962.72 32.61 962.72 48.32 984.24 48.32 984.24 108.79 1002.64 108.79 1002.64 48.32 1024.16 48.32 1024.16 32.61"/><path class="cls-4" d="M1062.37,32.61H1044.5l-32,76.18h20l5.6-15h29.48l5.92,15H1094ZM1043.43,79.1,1053.11,53l9.47,26.15Z"/><rect class="cls-4" x="704.66" y="32.61" width="18.51" height="11.3"/><rect class="cls-4" x="704.66" y="48.55" width="18.51" height="60.25"/></g></g></svg>